<svg width="168" height="168" viewBox="0 0 168 168" fill="none" xmlns="http://www.w3.org/2000/svg">
<circle cx="84" cy="84" r="84" fill="#163953"/>
<path d="M27.29 56.5H34.77L55.425 94.665L75.57 56.5H83.05V116H75.145V71.63L59.505 100.87C58.825 102.117 58.1733 102.995 57.55 103.505C56.9833 104.015 56.3033 104.27 55.51 104.27H53.215L35.28 71.63V116H27.29V56.5ZM114.05 116.68C110.084 116.68 106.57 115.773 103.51 113.96C100.45 112.147 98.0704 109.597 96.3704 106.31C94.7271 102.967 93.9054 99.1133 93.9054 94.75V77.75C93.9054 73.3867 94.7554 69.5617 96.4554 66.275C98.1554 62.9317 100.535 60.3533 103.595 58.54C106.712 56.7267 110.31 55.82 114.39 55.82H123.4C127.254 55.82 130.654 56.67 133.6 58.37C136.604 60.0133 138.899 62.3367 140.485 65.34C142.129 68.3433 142.95 71.8 142.95 75.71H135.045C135.045 71.9133 133.969 68.8533 131.815 66.53C129.719 64.2067 126.914 63.045 123.4 63.045H114.39C110.707 63.045 107.704 64.405 105.38 67.125C103.114 69.845 101.98 73.4433 101.98 77.92V94.58C101.98 99.0567 103.085 102.655 105.295 105.375C107.505 108.095 110.424 109.455 114.05 109.455H123.23C126.857 109.455 129.747 108.18 131.9 105.63C134.11 103.023 135.215 99.6233 135.215 95.43H143.12C143.12 99.6233 142.299 103.335 140.655 106.565C139.012 109.795 136.689 112.288 133.685 114.045C130.682 115.802 127.197 116.68 123.23 116.68H114.05Z" fill="white"/>
</svg>
